<svg width="50" height="60" viewBox="0 0 50 60" fill="none" xmlns="http://www.w3.org/2000/svg">
<g clip-path="url(#clip0_13_1087)">
<path d="M8.49702 17.8539C8.81597 17.5895 9.10288 17.4986 9.10288 17.4986C9.06929 18.1083 9.14644 18.6269 9.2853 19.064C9.38234 19.3785 9.52233 19.6781 9.70132 19.9545C10.2302 20.7668 10.9115 21.0849 10.9115 21.0849C10.9927 19.5224 11.7962 18.9947 11.7962 18.9947C11.6628 19.9067 11.6716 22.244 12.4716 24.0988C13.4052 26.2586 12.4412 26.1617 13.7398 28.8705C15.3746 32.2763 20.0082 32.2344 20.0082 32.2344C17.3515 32.9975 14.4166 32.0739 12.9789 29.7015C12.4123 28.7636 12.1832 27.9931 12.0804 27.3224C11.4251 27.1027 10.3542 26.1775 10.2892 26.1197C10.3412 26.1314 11.1919 26.3248 11.9917 26.3281C11.9644 25.7453 11.95 25.2284 11.7398 24.7077C10.9658 24.6138 10.1281 24.099 10.1281 24.099C10.0427 25.5966 9.27241 26.3425 8.40073 26.6018L8.17964 27.7358C9.02144 28.8617 11.1449 30.5199 11.1449 30.5199C11.1449 30.5199 9.36089 29.9647 7.99995 28.6494L7.50269 31.1906C8.37104 31.8902 9.27651 32.4947 10.1425 33.0265C12.6904 34.5919 16.1695 35.3038 17.0707 35.2605C17.9589 35.1014 18.8423 34.9167 19.7199 34.7067C18.8084 34.4973 16.6402 33.9547 15.4314 33.2918C16.3244 33.3364 19.7865 33.7932 23.1042 33.8135C26.2056 32.9201 28.6289 32.0355 28.6289 32.0355C28.6289 32.0355 27.3525 30.256 28.2578 28.1774C29.1632 26.0988 31.1029 25.604 32.0347 25.4721C32.8246 24.878 33.8796 22.6387 34.0074 20.5948C34.139 18.4627 32.6419 17.7269 31.7841 16.6196C30.9261 15.5123 30.3709 14.0653 29.2548 12.637C30.2986 13.1501 30.9869 14.077 30.9869 14.077C31.1347 13.6882 31.9087 11.4995 31.2289 10.1739C30.4794 8.71675 28.7869 8.06045 28.7869 8.06045C28.9767 7.84343 29.465 7.62116 29.465 7.62116C27.0138 6.39233 24.7709 7.99402 24.7709 7.99402C24.707 7.63246 24.7519 7.24382 24.7519 7.24382C23.5027 8.29187 23.149 10.2432 23.149 10.2432C25.7941 10.2259 26.7359 11.2465 26.7359 11.2465C23.8912 10.7579 20.6968 11.0182 18.2212 12.27C15.7457 13.5218 13.5285 16.1252 13.5285 16.1252C13.8287 14.6262 14.6156 13.9512 14.6156 13.9512C13.3054 12.9277 11.914 13.0954 11.914 13.0954C12.1763 13.2847 12.472 13.776 12.472 13.776C11.9051 13.8089 11.3491 13.9451 10.8314 14.1779C10.6015 14.2803 10.3805 14.4013 10.1705 14.5397C9.59937 14.9112 9.13589 15.3855 8.81968 15.8869C8.38062 16.5779 8.21987 17.3191 8.42983 17.9137C8.4519 17.893 8.47515 17.8728 8.49702 17.8539ZM21.8363 17.0834C21.8363 17.0834 22.2191 15.7884 23.5843 15.2043C24.9496 14.6203 27.6787 15.0859 29.2279 16.7569C30.7773 18.428 30.3236 20.206 29.0552 20.8868C27.125 21.9218 26.4218 20.7871 24.8279 20.2449C23.2337 19.703 21.283 19.2693 21.8363 17.0834ZM22.9593 21.4969C23.8972 21.3653 24.2132 21.9608 23.8609 22.7747C23.5087 23.5884 22.9986 23.9752 22.564 24.0785C21.6986 24.2811 20.6636 23.5336 20.6376 22.9554C20.6113 22.3771 22.022 21.6269 22.9593 21.4969ZM23.471 24.8836C24.1318 25.2814 25.6015 24.9678 25.6972 23.1606C25.6972 23.1606 26.5435 24.2651 25.6087 25.2234C25.8683 25.5861 26.2841 27.5552 24.8074 28.3212C23.1855 29.1639 22.0623 27.4699 21.8203 26.9973C20.723 26.8858 20.5232 25.9015 20.5232 25.9015C22.5697 26.8858 23.471 24.8836 23.471 24.8836ZM13.9824 22.3048C14.2 19.7867 16.0781 17.4074 18.3027 17.941C20.458 18.4584 20.0783 20.4345 19.616 21.7093C19.1535 22.9843 19.3085 23.6782 18.9523 24.6423C18.5957 25.6065 17.6724 26.3597 16.4505 26.2845C14.8806 26.1877 13.7898 24.7377 13.9826 22.3048" fill="#797979"/>
<path d="M34.9862 24.8346C34.9862 24.8346 34.4903 25.9874 32.4366 26.3887C30.1426 26.837 28.5727 28.4889 29.6293 29.9184C30.7106 31.3814 33.4122 30.9953 33.4122 30.9953C30.9844 32.3238 29.1465 30.7888 29.1465 30.7888C30.0063 32.8576 33.1499 33.525 35.6862 31.4289C38.2221 29.3328 38.4456 26.6776 38.4456 26.6776C38.1428 27.354 37.5108 28.0841 37.4717 28.1289C37.5063 28.0449 38.2672 26.1859 38.1616 24.7738C38.0528 23.3283 36.9252 22.2209 34.9354 21.329C34.8469 23.3556 33.37 25.3186 33.37 25.3186C34.0252 25.2207 34.9862 24.8346 34.9862 24.8346ZM21.3596 23.2387C22.0583 23.7908 22.5872 23.5611 23.0497 23.0451C23.512 22.5288 23.3668 22.0968 22.6844 22.299C22.002 22.5012 21.6569 22.7042 21.3436 22.8947C21.2698 22.9395 21.1073 23.0392 21.3596 23.2387ZM31.4991 37.0977C32.9614 37.8799 35.3063 39.801 36.0469 43.5984C35.9702 43.4365 33.5377 38.3381 28.1567 38.1429C22.1985 39.8702 15.9709 41.0396 14.8708 41.0137C14.852 41.9404 16.6389 52.8183 17.3883 56.4929C21.4999 58.6438 27.5702 57.749 30.2145 57.0986C34.7989 55.8062 37.8844 50.4822 37.8844 50.4822C37.6567 53.1509 35.7813 55.2801 35.7233 55.3467C38.429 54.0818 42.0987 50.8726 42.6364 49.6816L37.8594 34.3033C36.3295 35.2843 34.0456 36.2357 31.4991 37.0977ZM6.43462 26.439C6.17368 26.3063 5.96802 26.1312 5.8477 25.9305C5.8477 25.9305 6.11294 26.0199 6.49556 26.0634C6.71301 26.0883 6.93236 26.0927 7.15063 26.0762C7.41294 26.0548 7.68833 25.997 7.9522 25.877C8.2193 25.7582 8.45605 25.5808 8.64478 25.358C9.18833 24.7175 9.29126 23.8892 9.08696 23.0942C8.99932 22.7569 8.86411 22.4337 8.6854 22.1344C8.48626 21.7968 8.2365 21.4916 7.94477 21.2295C7.7649 21.0657 7.56817 20.9213 7.35786 20.7988C7.12542 20.6623 6.87585 20.5572 6.61567 20.4863C4.59829 19.9444 2.1895 22.432 3.4395 25.8466C3.99165 27.3571 4.86977 28.6305 5.89751 29.7164L6.43462 26.439Z" fill="#797979"/>
<path d="M39.1396 24.2803C39.1396 24.2803 40.4687 27.689 37.0075 31.4661C34.7613 33.8513 31.1755 34.4295 29.2913 32.8019C29.2913 32.8019 23.5665 34.9354 18.8193 35.8564C14.0741 36.7771 10.6161 36.9838 11.4204 34.7663C11.0626 34.6144 10.6322 34.3876 10.2089 34.1478C7.82922 34.9773 7.24074 36.8579 7.8593 38.214C6.61848 37.539 6.00676 35.2638 8.97805 33.4148C8.64895 33.2096 8.43313 33.0676 8.43313 33.0676C8.43313 33.0676 5.81848 34.146 4.67063 36.0368C3.52277 37.9276 4.42863 39.8067 6.86926 40.1203C9.30988 40.434 16.1568 40.2659 25.9763 37.6638C35.7956 35.0618 43.2943 30.472 44.3095 27.5811C45.3247 24.6902 41.1689 24.0279 39.1396 24.2803ZM22.9986 18.9078C23.0376 18.9966 23.4212 19.3235 23.4964 19.4085C23.5714 19.493 23.7353 19.5462 23.7353 19.5462L24.5747 19.8053C24.8544 19.8916 25.4806 19.9981 25.5109 20.0162C25.5411 20.0344 26.2671 20.2126 26.2671 20.2126C26.2671 20.2126 27.6726 20.1727 27.6968 20.1727C27.7208 20.1727 28.1739 20.0344 28.1919 20.0221C28.2099 20.01 28.6689 19.5881 28.6689 19.5881L28.8562 18.5881V17.6667C28.8562 17.3595 28.3429 16.5886 28.3366 16.5645C28.3308 16.5403 28.1101 16.2318 28.1101 16.2318L27.7087 15.9142L26.7062 15.5714C26.7062 15.5714 26.231 15.4381 26.2132 15.434C26.1954 15.4299 25.5825 15.3849 25.5644 15.4011C25.5462 15.4173 24.9118 15.4011 24.9118 15.4011L24.2962 15.375C24.0911 15.3662 23.5802 15.5609 23.5566 15.5714C23.5327 15.5823 22.956 16.0296 22.9437 16.0475C22.9314 16.0654 22.7021 16.6773 22.7021 16.6773C22.7021 16.6773 22.6056 17.1738 22.5995 17.192C22.5935 17.2101 22.7265 18.2521 22.7265 18.2521C22.7265 18.2521 22.9593 18.8192 22.9986 18.9078ZM15.4681 24.5998L16.247 24.8891H17.4155C17.4429 24.8891 18.0769 24.5007 18.0769 24.5007L18.6476 24.1126C18.8378 23.9833 18.9556 23.4616 18.9646 23.3893C18.9736 23.317 19.0462 22.4907 19.0462 22.4907C19.0462 22.4907 19.2462 21.8511 19.2644 21.7991C19.2827 21.7473 19.345 21.4109 19.3878 21.3653C19.4304 21.3197 19.5271 20.9312 19.5271 20.9312L19.6523 20.4612L19.6343 19.9508L19.6523 19.4223L19.3263 18.9255L18.9636 18.5112L18.2663 18.4099L18.1755 19.5664L16.7806 19.3225L14.7837 20.2917L14.6302 20.6057L14.2363 21.9701L14.4445 23.3883C14.514 23.8613 15.0154 24.2737 15.0425 24.2918C15.0697 24.3099 15.4681 24.5998 15.4681 24.5998Z" fill="#797979"/>
<path d="M42.7785 48.099L42.0087 45.958L41.1298 43.1028L40.0339 39.832L39.282 37.1305L38.1136 33.6703L31.0238 36.7482L27.0496 37.8565L23.571 38.8804L19.997 39.6148L16.1324 40.434L14.9124 40.7834C18.2458 42.2893 21.8456 39.6029 26.3863 41.1452C30.9269 42.6877 33.8984 46.0601 33.9951 48.4693C33.9951 48.4693 35.1908 47.1201 35.2632 45.6627C36.5796 51.2883 33.4878 56.2274 23.2218 58.1065C23.2218 58.1065 27.3648 58.4077 29.5626 57.9017C31.7605 57.3958 33.6691 56.7333 33.6691 56.7333L36.1749 55.6882C36.7851 55.3871 37.3951 55.086 38.005 54.7847L39.9705 53.2488L42.1263 51.216L43.1679 49.7525L42.7785 48.099ZM21.048 34.7998L21.9718 34.348L19.1999 27.1112L12.2013 25.5275C12.2013 25.5275 10.9933 25.2803 9.85151 24.5998L9.43549 23.6149C8.28705 21.5792 6.15619 21.3292 4.85209 22.8351C3.5478 24.3409 4.1269 26.8944 6.33764 28.9905C8.54838 31.0866 13.5599 34.5438 19.4538 35.0739L21.048 34.7998ZM24.5931 19.4918C25.7824 19.9617 27.5423 21.0314 28.7017 20.362C29.8611 19.6927 29.8755 18.1794 28.3189 16.8596C28.0349 16.6196 26.4915 15.4385 24.8335 15.583C23.1755 15.7276 22.1958 17.0287 22.4548 18.029C22.7138 19.0293 23.4884 19.0551 24.5931 19.4918ZM24.2117 17.8975C24.2726 17.1633 24.9581 16.6184 25.7451 16.6823C26.5322 16.7466 27.1206 17.3912 27.0611 18.1251C27.0566 18.1889 27.047 18.2522 27.0322 18.3144C26.8277 17.8749 26.3755 17.5477 25.8283 17.5032C25.1107 17.4456 24.4761 17.8923 24.3267 18.5283C24.2347 18.3314 24.1951 18.1142 24.2117 17.8975Z" fill="#4B4B4B"/>
<path d="M16.5001 25.6744C18.2493 25.621 18.4755 23.931 18.7468 22.5941C19.0177 21.2568 20.0423 19.8505 18.7468 18.8441C17.3624 17.7688 14.9089 19.4441 14.6624 21.8437C14.5292 23.139 14.752 25.7293 16.5001 25.6744ZM16.0815 21.4463C16.4337 20.7423 17.2554 20.4388 17.9163 20.7664C18.1109 20.864 18.2771 21.0098 18.3989 21.1899C17.7753 20.9889 17.0645 21.2996 16.7427 21.9421C16.4975 22.432 16.5438 22.9872 16.8163 23.3887C16.755 23.3696 16.6953 23.3455 16.638 23.3166C15.977 22.9874 15.7278 22.1503 16.0815 21.4463ZM21.9298 23.6293C22.3649 23.7919 22.4038 23.8642 22.6997 23.6293C22.9956 23.3944 23.4124 22.988 23.4124 22.988L23.5753 22.6418V22.4007C23.5753 22.3888 23.4425 22.0605 23.4425 22.0605C23.4425 22.0605 23.2829 21.952 23.2733 21.952C23.2639 21.952 23.0438 21.9462 22.9804 21.9641C22.9173 21.9822 22.7721 21.9912 22.6786 22.0364C22.5848 22.0818 21.8934 22.4369 21.8934 22.4369C21.8934 22.4369 21.4946 23.4674 21.9298 23.6293ZM9.97898 18.8626C10.0649 18.5556 10.5768 18.1009 10.5768 18.1009C10.3233 19.6068 11.1747 20.498 11.1747 20.498C13.0407 20.7629 13.8259 20.1849 13.8259 20.1849C13.8259 20.1849 17.4372 15.2338 14.4415 14.4388C11.446 13.6436 10.0241 15.8998 10.0241 15.8998C10.4272 15.7418 11.1745 15.7644 11.1745 15.7644C9.65281 16.8569 9.97898 18.8626 9.97898 18.8626ZM29.2848 14.1618L30.3839 13.776C31.4587 11.2707 29.7167 10.1624 29.7167 10.1624C30.0804 10.1508 30.4445 10.1629 30.8067 10.1984C29.1616 8.19877 26.7124 8.95169 26.7124 8.95169C26.9175 8.49994 27.4249 8.04214 27.4249 8.04214C25.4684 8.09046 24.0011 9.4576 23.8079 10.5117L24.6231 12.114L29.2848 14.1618ZM34.5221 25.2458C35.5456 24.69 35.2093 23.401 34.4723 22.7864C34.4723 22.7864 33.3128 24.7077 33.1136 25.3181C32.9143 25.9284 33.4985 25.8012 34.5221 25.2458Z" fill="#4B4B4B"/>
<path d="M29.0404 35.3149C36.3802 33.5801 42.3287 29.2917 42.7875 27.3764C43.2462 25.461 40.1546 25.4731 40.1546 25.4731C39.9009 26.5451 39.0376 27.4816 39.0376 27.4816C39.0376 27.4816 38.2244 28.7365 38.0353 29.1399L38.5365 28.0695L38.748 27.3286L38.9111 26.0517L38.7841 24.8291L38.3736 23.6123L37.5099 22.3054L36.7732 21.8176L36.4412 21.9321C36.3304 21.9703 38.2043 24.2751 36.9183 27.2386C36.9183 27.2386 37.0935 26.0277 36.8275 25.3108C36.8275 25.3108 36.0972 28.3046 33.4763 29.6778C30.8554 31.051 28.9404 28.5791 30.7224 26.7746C30.7224 26.7746 29.7078 26.9131 29.5402 27.2971C29.3726 27.6808 28.8986 27.8347 28.7539 28.5094C28.6665 28.925 28.6299 29.3496 28.6449 29.774C28.6034 30.1103 28.6021 30.4503 28.641 30.7868C28.7054 31.3408 29.2367 31.9673 29.2367 31.9673L29.448 32.1393L28.1863 32.6419L24.1644 34.0595L20.3062 34.981L16.547 35.8303L14.2462 35.8664L12.8332 35.6045L12.2896 34.6558L10.1654 33.5854L9.34566 33.7977L8.17417 34.521C7.78374 34.7622 7.02691 36.0869 7.23218 36.9658C7.44351 37.8814 7.71519 40.0136 16.0486 38.6645C24.3824 37.3153 29.0404 35.3149 29.0404 35.3149ZM37.0574 30.6047L37.4476 30.0943C37.2753 30.3491 37.0865 30.624 36.9005 30.9058C36.439 31.6058 35.7658 31.8397 35.2679 32.2204L36.1517 31.5444L37.0574 30.6047ZM33.9959 32.7189L35.183 32.2818C34.7623 32.5745 34.2021 32.7619 33.4183 32.9275L33.9959 32.7189ZM30.065 32.6406L31.7199 33.1399C31.2863 33.1399 30.9298 33.0857 30.64 32.9928C30.1074 32.8219 29.4523 32.1434 29.4476 32.1386L30.065 32.6406Z" fill="#4B4B4B"/>
<path d="M23.2219 23.2929C23.5422 23.1421 23.4967 22.8228 23.5 22.8078C23.5034 22.7928 23.5782 22.6033 23.6114 22.4162C23.645 22.2296 23.4635 22.1813 23.2344 22.058C23.0053 21.9347 22.5583 22.0157 22.5583 22.0157L22.3467 22.2327C23.0293 22.6122 22.1838 23.0398 22.1233 23.7267C22.467 23.8559 22.9016 23.4436 23.2219 23.2929ZM13.6114 22.7205C13.6114 22.7566 13.8467 24.3647 13.8741 24.6678C13.9014 24.9707 14.354 25.8376 14.3817 25.9097C14.4094 25.9818 16.0754 27.0661 16.2206 27.1296C16.3655 27.1927 17.3799 27.2106 17.4071 27.1927C17.4344 27.1746 18.7477 26.3971 18.7749 26.3706C18.802 26.3441 19.5086 24.3557 19.5086 24.3557L19.1192 22.3319C18.6752 22.3412 17.5641 24.383 16.4952 24.473C15.4264 24.5632 14.8588 23.5335 14.5508 22.1361C14.5502 22.1361 13.6114 22.6845 13.6114 22.7205ZM27.9444 22.1363C27.9805 22.1363 29.6473 21.8591 30.0217 21.7387C30.3961 21.6181 30.9758 20.7629 30.9758 20.7629L31.5559 19.0525C31.7493 18.4824 31.0969 17.8598 31.085 17.8235C31.0729 17.7875 29.3454 15.4146 28.3307 14.9638C27.3163 14.5132 27.6182 14.7164 27.4975 14.6803C27.3768 14.6443 26.8211 14.9332 26.7969 14.964C26.7729 14.9946 26.7364 15.8005 26.7364 15.8005C28.4637 16.704 28.829 18.6555 27.878 19.2968C26.9268 19.9385 25.9754 19.3874 24.7317 19.7577C24.7317 19.7577 24.925 20.6546 24.9493 20.6914C24.9737 20.7281 27.9079 22.1363 27.9444 22.1363ZM11.543 17.2457C11.3499 17.8531 11.3739 18.7905 11.5459 19.4544C11.5459 19.4544 11.5551 19.7661 11.5551 19.7934C11.5551 19.8203 13.9192 18.7633 13.9192 18.7633L15.3051 16.9204C15.767 16.306 15.4954 15.6735 14.0551 15.2309C12.6149 14.7883 11.8204 15.6766 11.8204 15.6766C12.0258 15.6643 12.3157 15.7368 12.3157 15.7368C11.1924 16.4868 11.0354 17.619 11.0354 17.619C11.1387 17.4624 11.5432 17.2457 11.5432 17.2457M28.7112 13.8211C28.7112 13.8211 29.2458 14.047 29.6897 13.035C30.1334 12.0234 29.0713 11.0227 29.0713 11.0227C29.2354 11.0733 29.3962 11.1328 29.5538 11.2011C28.7838 9.64735 27.1801 9.88229 27.1801 9.88229C27.3002 9.72196 27.6241 9.548 27.6241 9.548C25.9573 9.15956 24.9368 10.6261 24.9368 10.6261L24.8612 11.2915L25.767 12.5745L28.7112 13.8211ZM34.104 23.6359L32.9686 25.1901L32.9204 25.7922L34.2309 25.274C34.7803 24.5575 34.4782 23.9188 34.104 23.6359ZM29.685 30.7658L29.1049 30.4496C29.0039 30.5021 28.9028 30.5548 28.8016 30.6078V31.0233C28.8016 31.037 28.9827 31.4525 28.9827 31.4525L29.5483 32.2204L30.4858 32.7444L31.7176 33.0246L32.5375 33.1058C32.8106 33.1329 33.6108 32.9207 33.6291 32.9071C33.6473 32.8935 34.535 32.6135 34.553 32.5907C34.5709 32.5681 35.1356 32.3996 36.1627 32.0199C37.1901 31.6407 37.9745 30.7915 38.2522 30.3879C39.2608 29.8699 40.4776 28.2949 38.8469 27.8521C38.8469 27.8521 38.4967 27.6534 38.6149 27.021C38.7331 26.3887 38.3403 25.8647 37.9596 27.1025C37.579 28.3401 36.2174 29.6833 36.2174 29.6833C36.3866 29.334 36.4559 28.1498 36.4559 28.1498C35.6952 29.2611 34.2247 31.2183 32.244 31.2064L30.378 31.0185L29.685 30.7658Z" fill="#383838"/>
<path d="M32.3073 33.4446L29.4177 32.4417L29.0009 32.3275L26.211 33.4414L23.6446 34.2004L22.9464 34.3757L24.0196 34.0315L25.6503 33.5166L29.2542 32.1707L28.7288 31.222L28.43 29.7403L28.2034 29.4694L28.4872 28.7616L19.9732 29.1713C17.1353 29.3077 12.6179 27.4124 11.422 26.4849C11.422 26.4849 10.4196 26.2138 10.0694 26.0272C10.0694 26.0272 10.4407 26.8042 10.9347 27.1746C10.9347 27.1746 9.63468 26.6055 8.90089 25.9956L9.28566 25.1011L9.21788 24.8164C9.19542 24.7216 8.78273 22.7747 6.70597 23.2083C4.62902 23.6422 5.10558 26.5331 6.54269 27.5088C6.54269 27.5088 7.28566 27.4124 8.19152 28.292C9.09718 29.1711 9.56671 29.528 9.56671 29.528L10.4183 30.0657C11.5392 30.8201 13.6292 31.8635 15.296 32.4688C15.296 32.4688 13.7952 32.5681 12.8171 32.4109C12.8171 32.4109 15.8786 33.6156 18.2579 33.9288C20.6372 34.2421 21.6456 34.6636 21.6456 34.6636L22.0888 34.5912L21.2712 34.7977L18.8739 35.4302L16.6577 35.8097C15.8081 35.8837 14.9586 35.9579 14.1093 36.0324L12.0925 34.5025L10.6128 34.2251C9.4716 34.9603 8.81339 36.8694 11.2046 37.6524C13.596 38.4353 22.4247 37.3393 29.5263 33.7253C29.5263 33.7247 31.6909 33.9232 32.3073 33.4446ZM42.54 47.6139L42.0568 45.8914L41.2114 43.5064L40.4444 41.0129L39.8769 39.1818L39.2909 37.1398C39.0717 36.4309 38.8523 35.722 38.6327 35.0131L37.9687 33.7183L36.755 34.2604L34.9552 35.1573L32.2138 36.2959L29.7261 37.0005C28.8968 37.2353 31.5737 37.7353 32.081 38.3227C32.5884 38.9098 33.5484 39.2531 33.8837 39.8133C34.2189 40.3736 34.6716 40.7079 34.8437 41.1413C35.0157 41.5748 35.2788 41.7723 35.4687 42.3339C36.2569 43.9151 36.9544 45.7703 36.9905 46.5534C36.9905 46.5534 37.4374 45.0232 37.4495 43.2405C37.4495 43.2405 39.6052 49.8359 36.4593 53.1304C33.4034 56.3466 34.9253 56.2444 35.8855 55.7987C36.8456 55.3529 38.597 54.2566 38.597 54.2566L40.3841 52.8534L41.9304 51.4198L43.1321 49.9321L43.1741 49.6609L42.54 47.6139Z" fill="#383838"/>
<path d="M22.4612 50.3844C21.6634 44.1325 16.537 41.6209 14.5081 41.7023L16.8993 56.6488L17.0384 56.8175L20.0579 57.8653C26.5312 56.1064 23.8019 48.3368 23.0649 47.4092C23.1978 49.1916 22.4612 50.3844 22.4612 50.3844ZM44.8485 25.9052L44.4454 25.2594L43.7841 24.6314L42.8511 24.2248L41.2524 23.9447L41.103 24.1118C43.7841 24.654 44.3995 27.2739 42.4253 30.2914L43.2542 29.9346L43.7886 29.3293C43.9667 29.1275 44.4589 28.4891 44.4636 28.4759C44.4679 28.4626 44.8169 27.5723 44.8169 27.5723L44.8937 26.7951L44.8485 25.9052ZM6.33779 39.0372C4.30869 37.3989 5.43193 35.3328 8.00459 32.9838C8.00459 32.9838 6.74268 33.4839 5.0999 34.7669C3.45713 36.0499 3.59014 37.1519 3.59014 37.1519L3.71709 38.5553C3.75928 39.0228 4.30264 39.5912 4.39932 39.6877C4.49619 39.7841 5.73369 40.3241 5.73369 40.3241L7.12881 40.5483C7.59365 40.6231 9.13955 40.8797 9.16377 40.8797H10.4923C11.4747 40.681 12.4571 40.4822 13.4394 40.2832C14.4216 40.0845 8.3667 40.6755 6.33779 39.0372ZM6.51377 29.9657C3.23975 26.8399 2.88779 23.5483 4.00068 22.0769C5.11357 20.6055 6.67588 20.4974 7.59385 20.7865L7.18018 20.2446L6.32432 20.0367H5.4501L4.58057 20.3114L3.5751 21.1562L3.01807 22.1412L2.6333 23.2027V24.0384L2.78252 25.3572L3.19014 26.4865L3.89209 27.9142L4.90674 29.5268L5.75361 30.4525L7.27998 31.7357L8.91943 32.8212L10.3325 33.6296L11.9134 34.4203L14.1507 35.1793L16.6647 35.4955C13.4831 34.5214 9.78779 33.0922 6.51377 29.9657ZM8.55381 18.5162L8.68662 18.2211L8.93428 19.2331L9.39326 20.1246C9.54639 20.4218 9.99717 20.8596 10.0153 20.8954C10.0333 20.9314 11.0782 21.5823 11.0782 21.5823L11.1022 20.8954C10.6401 20.6515 9.29053 19.215 9.50791 17.1733C9.50791 17.1733 9.10947 17.1791 8.78291 17.384C8.78291 17.384 8.97334 14.6254 12.3278 13.7279L12.1681 13.5187C12.1149 13.449 13.5714 13.2945 14.7729 14.0953L14.9845 13.957L14.8638 13.6075L14.1269 13.1316L13.1063 12.8125L12.2853 12.7342L11.5362 12.8186L11.3431 12.9873L11.4155 13.2522L10.9995 13.6619L10.13 13.9149L9.10342 14.752L8.58994 15.5653L8.18564 16.4332L7.99814 17.4994L8.14932 18.3238L8.55381 18.5162ZM14.6167 20.6998L14.5351 21.3894V21.7989C15.3144 20.2541 16.1565 18.691 18.8378 18.7755L18.5239 18.3269L18.0349 18.2427L17.6149 18.1763L16.8421 18.3238L16.3651 18.5799L15.8429 19.0284L15.3175 19.5764L14.9854 20.0069L14.6167 20.6998ZM24.6231 15.4508C24.6231 15.4508 24.1368 15.2443 23.3579 15.669C22.5786 16.0936 22.2483 16.9202 22.2483 16.9202L22.0036 17.4885L22.1487 18.1806C22.1972 18.4112 22.4704 18.7633 22.4886 18.7814C22.5063 18.7997 22.9505 19.1287 22.9505 19.1287L23.6841 19.5037L24.3815 19.576C22.4491 18.5279 22.4612 16.4235 24.6231 15.4508ZM30.8718 8.94274C30.8718 8.94274 30.4958 8.51358 30.4821 8.49994C30.4685 8.48631 29.7849 7.91728 29.7849 7.91728L30.1923 7.66871C30.3282 7.58592 29.8571 7.37942 29.8435 7.36598C29.8298 7.35254 29.2593 7.03189 29.2593 7.03189L28.3128 6.83378H26.8901L26.1563 6.97365L25.4272 7.11839C25.1843 7.1667 25.047 7.06871 25.047 7.03267C25.047 6.99663 25.0151 6.73462 25.0151 6.73462L24.7075 6.81916C24.7075 6.81916 24.1911 7.08118 23.8923 7.59176C23.5935 8.10215 23.2989 8.55839 23.2989 8.55839L22.9095 9.42137L22.656 10.5733L23.4304 10.5144C23.6884 10.4949 23.8288 8.87027 24.5899 8.07507L24.6896 8.60806C24.7228 8.78572 26.5646 6.84624 28.8376 7.59624L28.3757 8.15183C28.2216 8.33709 30.7222 8.77715 31.5315 10.7164L31.5511 10.0901L31.2024 9.39897L30.8718 8.94274ZM36.0847 23.618C35.7767 23.6842 35.836 25.1297 34.8587 26.0394C34.405 26.4618 34.2954 26.439 34.1417 26.768C33.8845 27.3185 34.4542 27.9877 35.514 26.768C36.5737 25.5485 36.3925 23.5518 36.0847 23.618ZM33.245 27.3055C33.0984 27.3055 32.9578 27.3635 32.8542 27.4669C32.7505 27.5703 32.6923 27.7105 32.6923 27.8568C32.6923 28.003 32.7505 28.1432 32.8542 28.2466C32.9578 28.35 33.0984 28.4081 33.245 28.4081C33.3916 28.4081 33.5322 28.35 33.6359 28.2466C33.7395 28.1432 33.7978 28.003 33.7978 27.8568C33.7978 27.7105 33.7395 27.5703 33.6359 27.4669C33.5322 27.3635 33.3916 27.3055 33.245 27.3055Z" fill="#A7A5A5"/>
<path d="M30.6831 14.2722L30.1175 13.5144L29.9161 13.2429C29.345 12.5521 27.4306 11.2942 25.7306 10.9486L24.2999 10.6771H22.7872C22.7872 10.6771 20.7032 10.8409 20.6771 10.8489C20.6509 10.8567 18.5755 11.5183 18.5481 11.5354C18.5206 11.5523 16.845 12.556 16.845 12.556L17.6147 14.0201L19.261 14.963C19.261 14.963 20.2509 16.7151 20.2755 16.7872C20.2999 16.8594 20.8784 19.0046 20.8784 19.1001C20.8784 19.1955 20.4929 21.0516 20.3706 21.4781C20.2485 21.9045 19.7431 25.5935 19.2909 26.5333C18.839 27.4726 16.862 29.1538 15.9198 29.5687C14.9778 29.9836 15.1778 31.2253 15.1894 31.2427C15.2011 31.2602 16.1444 31.756 16.1444 31.756L17.1765 32.1232L18.0214 32.1345C19.6374 32.3601 22.4083 32.2299 24.7659 31.6849L26.4034 30.6645L27.1515 28.7924L27.5515 26.6589L28.4022 24.4011C28.6858 23.6484 29.453 22.8109 29.5081 22.6662C29.5632 22.5218 30.4313 20.3172 30.4313 20.3172L30.7759 16.4684L30.6831 14.2722ZM21.8019 23.7596C21.7421 23.7289 21.6827 23.6976 21.6235 23.6657C21.6034 23.654 21.4233 23.5673 21.3829 23.4994C21.3425 23.4314 21.2104 23.2767 21.1974 23.2623C21.1841 23.2479 20.961 23.0628 20.961 23.0628C20.961 23.0628 20.9931 22.8286 20.9987 22.8154C21.0046 22.8025 21.1972 22.5945 21.1972 22.5945L21.2294 22.4673C21.2423 22.4673 21.6118 22.3777 21.6235 22.3689C21.6353 22.3601 22.3196 22.0177 22.3196 22.0177L22.8153 21.944L23.1372 21.9123L23.2864 21.9528L23.3544 22.0177L23.5212 22.1607C23.5134 22.1949 23.5134 22.2308 23.5212 22.2649C23.5356 22.3227 23.5212 22.4675 23.5212 22.4675C23.5256 22.5173 23.5276 22.5674 23.5271 22.6177C23.5255 22.667 23.4226 22.907 23.4124 22.9241C23.4021 22.9412 23.2313 23.1686 23.2228 23.2003C23.214 23.2321 23.046 23.3983 23.0095 23.4345C22.9733 23.4707 22.7835 23.6065 22.7646 23.6238C22.7456 23.6412 22.453 23.7466 22.453 23.7466C22.453 23.7466 22.1228 23.7871 22.1081 23.7871C22.0935 23.7871 21.8177 23.7662 21.8019 23.7596ZM25.2192 27.3097C25.1235 27.6047 24.7569 27.7985 24.7481 27.8114C24.7394 27.8242 24.1642 28.0701 24.1511 28.0744C24.138 28.0786 23.6612 28.0744 23.6524 28.0744C23.6435 28.0744 22.9233 27.8028 22.9233 27.8028C22.9233 27.8028 22.4976 27.4545 22.4884 27.4371C22.3727 27.1767 22.2578 26.916 22.1435 26.655L22.3202 26.3846L23.2665 25.8107L23.5114 25.5896L25.1376 25.4899C25.6796 25.4568 25.3188 25.9422 25.3681 26.2531C25.4173 26.564 25.3149 27.016 25.2192 27.3094V27.3097ZM29.8409 19.4143C29.7976 19.7394 29.6235 19.9983 29.3454 20.2338C29.0673 20.4696 28.5237 20.8179 27.9933 20.9075C27.4628 20.9971 26.6757 20.805 25.9757 20.4088C25.2743 20.0098 24.5265 19.7338 24.5206 19.709C24.5206 19.709 23.3612 19.4258 23.0655 19.2999C22.77 19.1743 22.4249 18.6914 22.1952 18.3417C21.9657 17.992 21.9896 17.7099 22.081 17.2936C22.1724 16.8773 22.7866 16.1199 22.7866 16.1199L23.5054 15.5287L24.3983 15.3551L25.3651 15.277L25.9751 15.3783L26.9591 15.608C27.2872 15.6846 27.8478 16.0531 27.8649 16.059C27.8825 16.0648 28.6737 16.643 28.6737 16.643C28.6737 16.643 29.0911 17.0897 29.1028 17.1185C29.1146 17.1475 29.6347 17.902 29.6173 17.9209C29.5999 17.9398 29.8579 18.6914 29.8638 18.7216C29.8698 18.7521 29.8829 19.0886 29.8409 19.4137V19.4143ZM10.2417 5.9026L10.1194 6.08767L8.78799 14.063L9.22314 14.1331L9.82549 14.1649L10.8245 13.7453C11.1573 13.6054 10.9153 11.7894 11.3745 9.74144C11.8335 7.69364 12.0628 6.23611 12.0628 6.23611C12.0628 6.23611 11.1476 5.68579 10.2417 5.9026ZM8.42529 18.6643L8.10693 19.0042L7.71436 20.4678L9.04307 21.4075L9.36924 20.3655L8.67471 18.6247L8.42529 18.6643ZM6.35576 28.7365L5.95264 31.8092L6.25166 32.1166H6.97178L8.1251 26.5091L6.86299 26.4187L6.35576 28.7365Z" fill="#C6CACD"/>
<path d="M34.3574 19.4137C34.1521 18.4502 33.6691 18.0164 33.6691 18.0164C33.6691 18.0164 33.0164 17.3057 32.5098 16.7394C32.0029 16.1733 31.616 15.523 31.616 15.523C31.616 15.523 31.0299 14.7384 30.4959 14.0223L30.409 14.1255C27.8605 11.8851 25.1189 11.9451 25.1189 11.9451C26.7978 13.0414 26.6045 14.4871 26.6045 14.4871C29.3705 15.8361 29.6842 17.6024 29.6842 17.6024C29.6842 17.6024 29.4729 17.6069 29.5936 17.8297C29.7143 18.0524 29.7143 18.5585 29.8471 19.0103C29.9799 19.4622 29.6842 19.462 29.5873 19.9138C29.4908 20.3657 29.2855 20.1908 29.0139 20.4861C28.7424 20.7814 28.2229 20.7448 27.649 20.9077C27.0754 21.0703 25.8072 20.4378 25.8072 20.4378C26.4107 21.0401 26.5322 22.7626 25.7361 23.2716C25.7361 23.2716 25.7498 23.4206 25.7859 23.6375C25.8223 23.8541 25.5912 24.3649 25.4379 24.8075C25.2846 25.2501 25.2703 25.2682 25.2703 25.2682C25.2703 25.2682 25.3186 26.0453 25.4213 26.5512C25.5238 27.0571 25.3127 27.4849 25.3127 27.4849C26.6531 29.5689 24.7684 31.6851 24.7684 31.6851C26.1941 31.3562 27.4693 30.8751 28.2475 30.2314L28.2111 30.0144L29.2379 27.1956L30.0355 26.7136L30.6996 26.4487L31.7143 26.0994C31.9912 25.9892 32.2483 25.8346 32.4752 25.6416C32.8377 25.3286 32.9461 25.1355 33.2482 24.5456C33.5504 23.9558 33.8643 23.5578 34.0695 22.8711C34.2748 22.1846 34.2871 21.9195 34.3596 21.2568C34.432 20.5942 34.5627 20.3774 34.3576 19.4139M9.99707 13.9449L10.8 13.5923C10.8234 13.2904 10.8466 12.9882 10.8695 12.6859L10.8998 12.3397C10.9098 12.2242 11.075 11.4814 11.0781 11.4693L11.3801 10.1529L11.4826 9.24039L11.7633 8.23441L11.8992 7.18052L12.0111 6.40656L12.0502 6.04812L11.2381 5.87045C11.5914 6.81915 10.1783 12.4993 9.99707 13.9449ZM8.60195 21.1184L8.96445 21.4256L9.36914 20.3897L8.92207 19.9138L8.60195 21.1184ZM7.56035 28.2857L8.10723 26.5634L7.07129 26.5056C7.37012 26.7686 7.60566 27.292 7.56035 28.2857Z" fill="#A1A5A8"/>
<path d="M21.4551 22.4856L22.3799 21.8437C24.309 20.7322 23.6264 20.0558 23.0293 19.4745C21.4711 17.0648 22.3699 16.9927 22.0141 15.3185C21.3125 11.8003 16.8443 12.5562 16.8443 12.5562L15.0442 14.3486C13.9457 15.3179 12.1615 17.9046 11.4817 19.7116L11.3733 20.6353L11.4818 22.133L11.6543 23.019C11.7117 23.3143 12.0791 24.346 12.0895 24.4099C12.0998 24.4734 12.3692 25.1238 12.3692 25.1238L12.5606 26.2903L12.7951 27.9064C12.8734 28.4451 13.0488 28.4398 13.6654 29.6599C14.282 30.8799 15.451 31.1053 15.451 31.1053C19.0365 32.3688 23.2859 30.8092 22.6787 27.7531C22.6787 27.7531 22.5873 27.5451 22.3613 27.0203C22.1354 26.4955 22.2801 26.2247 22.2801 26.2247C23.6121 24.8254 22.2525 23.9753 22.2525 23.9753C22.2525 23.9753 22.3033 23.8857 21.9902 23.8222C21.6772 23.7587 21.2207 23.4059 20.999 23.1312C20.7774 22.8565 21.4551 22.4856 21.4551 22.4856ZM19.6119 20.521C19.6119 20.5428 19.4582 21.2527 19.4582 21.2527L19.2277 21.9037L18.9598 22.771L18.8424 23.4489L18.6611 24.2881L18.167 25.2407L17.4699 25.7827L16.967 25.9362C16.9539 25.9416 16.3336 25.9362 16.3336 25.9362C16.3336 25.9362 15.8668 25.8144 15.8438 25.8014C15.8203 25.7885 15.3961 25.5657 15.3961 25.5657L14.8844 25.0338L14.5309 24.3879L14.3363 23.9079C14.2719 23.7477 14.3408 23.1403 14.3363 23.0825C14.332 23.0246 14.277 22.0894 14.277 22.0779C14.277 22.0664 14.4945 21.2437 14.5031 21.2207C14.5117 21.1977 14.6945 20.4805 14.6945 20.4661C14.6945 20.4516 15.1914 19.5454 15.2104 19.522C15.2295 19.4986 15.9018 18.9078 15.9211 18.8948C15.9406 18.8817 16.9182 18.2616 16.9182 18.2616C16.9182 18.2616 17.3166 18.2024 17.34 18.1979C17.3633 18.1933 17.9502 18.1979 17.9502 18.1979L18.6299 18.3787C18.7783 18.4885 18.9266 18.5983 19.0748 18.7083L19.4908 19.3015L19.6359 19.9524C19.6842 20.1694 19.6119 20.4976 19.6119 20.521ZM10.0453 6.01852L9.61017 9.29514L8.72853 14.4039C8.43458 16.1069 8.95509 14.7066 8.96856 14.7111C8.98204 14.7156 9.26739 14.7382 9.26739 14.7382L9.79728 14.1018C9.4504 13.6463 9.99649 12.0417 10.2324 10.5962C10.4682 9.15079 11.102 6.5217 10.6854 5.86209L10.0453 6.01852ZM7.96349 18.9666L7.8004 20.3445L8.39689 20.7448L8.74103 19.4499L8.55685 18.578L7.96349 18.9666ZM6.81466 26.7259L6.33771 28.8158L6.14435 30.3939C6.07989 30.9199 5.81837 30.9421 6.10821 31.418C6.39806 31.8939 6.77247 30.9329 6.89923 30.0748C7.02599 29.2165 7.19513 27.7021 6.95353 26.7018L6.81466 26.7259Z" fill="#F6FBFD"/>
<path d="M17.3914 42.5815C16.2232 42.5874 15.277 42.5036 14.6465 42.3372L14.7711 43.3375L14.7754 43.3679L15.393 47.229C17.4984 47.4372 19.5871 47.4327 21.609 47.2636C20.5953 44.9638 18.9336 43.4416 17.3914 42.5815Z" fill="#DF6064"/>
<path d="M23.6337 25.9736C23.6337 25.9736 23.2452 26.5186 22.5757 26.8338C23.322 28.5526 25.6308 27.8081 24.9526 25.7829C24.3583 26.1674 23.6337 25.9738 23.6337 25.9738M10.2028 10.592C10.1942 10.6498 10.1841 10.7076 10.1724 10.7655C10.3087 10.7844 10.4933 10.8551 10.6063 10.9188C10.679 10.5604 10.7528 10.1897 10.8239 9.82384C10.6993 9.77475 10.5134 9.73034 10.3728 9.70813C10.3118 10.0296 10.245 10.3303 10.2028 10.592ZM35.4688 42.3347C35.279 41.7736 35.0165 41.5757 34.844 41.1419C34.6718 40.7083 34.2194 40.3744 33.8831 39.8137C33.7499 39.591 33.5192 39.4031 33.2571 39.2205C31.2528 40.0937 29.044 40.7875 26.8567 41.3139C29.1019 42.158 30.931 43.4461 32.1743 44.8179C33.5167 44.2931 34.747 43.7149 35.8384 43.1122C35.7199 42.8508 35.5966 42.5916 35.4687 42.3347" fill="#AA282A"/>
<path d="M38.7296 35.7957C37.321 37.1488 35.4048 38.2878 33.2569 39.2201C33.5192 39.4023 33.7503 39.5903 33.8831 39.8133C34.2194 40.3742 34.6716 40.7079 34.844 41.1415C35.0167 41.5751 35.2792 41.7733 35.4687 42.3341C35.5965 42.5912 35.7197 42.8505 35.8382 43.112C37.5978 42.1405 38.9935 41.1041 39.9065 40.1211L38.7296 35.7957ZM10.8001 9.8139C10.729 10.1779 10.6564 10.5417 10.5825 10.9052C10.741 10.9947 10.8855 11.1068 11.0116 11.2379C11.0868 10.8943 11.1621 10.5508 11.2376 10.2074C11.1712 10.0179 11.0058 9.89494 10.8001 9.8139ZM24.4448 28.0329C24.4448 28.0329 24.9222 27.8893 25.1786 27.4638C25.4351 27.0382 25.372 27.0088 25.436 26.6468C25.5003 26.2845 25.1786 25.928 25.1786 25.928C24.3726 26.5241 23.9647 27.3372 24.4448 28.0329Z" fill="#771C1C"/>
<path d="M26.8568 41.3139C23.3349 42.1593 19.8681 42.5702 17.3914 42.5815C18.9335 43.4416 20.5957 44.9638 21.6089 47.2636C25.4843 46.9414 29.1177 46.0161 32.1742 44.8179C30.931 43.446 29.1019 42.158 26.8568 41.3139ZM9.54175 9.68668L9.47046 10.1016V11.0846C9.70249 10.7982 9.96362 10.7334 10.2023 10.7694C10.214 10.7115 10.2242 10.6537 10.2328 10.596C10.2748 10.3342 10.3314 10.0317 10.3923 9.71103C10.0433 9.65785 9.68804 9.67519 9.54175 9.68668ZM23.3125 27.9004H23.5179C23.4031 27.262 24.0462 26.0813 24.7437 25.7562L23.5044 25.5785L22.1501 26.7167L22.7267 27.5388L23.3125 27.9004Z" fill="#D63D3D"/>
<path d="M44.596 29.0817C46.4628 26.6242 45.5206 22.763 38.745 23.1793C38.745 23.1793 37.5857 20.9402 35.0407 20.2449C34.9771 18.8601 34.1683 17.8712 33.4073 17.2214C32.6464 16.5715 32.1827 15.5791 31.7696 15.1775C31.7696 15.1775 32.5491 13.6566 32.4159 11.8007C32.2827 9.9446 31.471 8.87044 30.6827 8.18395L31.3331 8.12745C30.3839 6.97401 28.8812 5.9431 25.6564 6.57642L25.9636 5.78434C24.1796 6.01849 22.8868 7.47681 22.1257 10.2713C20.4954 10.1934 16.9636 11.4695 15.2663 13.1984C14.4765 12.5813 12.5734 12.0912 11.1503 12.441L12.3687 6.21505C11.9601 5.44752 10.4962 4.95174 9.76418 5.96784L8.24992 15.2164C8.12053 15.389 8.0015 15.569 7.89347 15.7556C7.29191 16.7936 7.42921 17.8128 7.71222 18.5024L7.47882 19.9245C6.04406 19.3026 3.73253 19.3999 2.57296 22.0048C1.45128 24.5228 2.8921 28.2524 5.66437 31.0104L5.53683 31.7916C5.58605 32.3176 6.56671 32.9449 7.24113 32.361C7.30519 32.4086 7.36997 32.4553 7.43546 32.5013C7.43546 32.5013 4.95128 33.8456 3.56281 35.713C2.17433 37.5804 2.58449 40.5917 6.25578 41.0858C9.92707 41.5804 13.6718 41.206 13.6718 41.206L16.2298 56.9784C17.0825 62.2358 18.9618 58.95 23.6359 59.1495C28.3099 59.3489 39.3612 57.54 43.7089 49.8064L38.7872 33.698C38.7872 33.698 42.7308 31.5389 44.596 29.0817ZM38.1411 24.7739C38.2466 26.1863 37.4859 28.0451 37.4511 28.1291C37.4902 28.0843 38.122 27.3541 38.4249 26.6776C38.4249 26.6776 38.2019 29.3332 35.6653 31.4291C33.1288 33.525 29.9857 32.8574 29.1263 30.7889C29.1263 30.7889 30.964 32.324 33.3915 30.9954C33.3915 30.9954 30.69 31.3815 29.6089 29.9186C28.5523 28.4889 30.122 26.8371 32.4161 26.3887C34.4698 25.9868 34.9655 24.8347 34.9655 24.8347C34.9655 24.8347 34.0046 25.2206 33.3495 25.319C33.3495 25.319 34.8263 23.356 34.9148 21.3294C36.9046 22.221 38.0321 23.3283 38.1409 24.7739M10.3993 6.11765C10.3993 6.11765 11.1138 5.81122 11.7482 6.36486L10.5136 12.676C10.3769 12.7453 10.248 12.8291 10.1296 12.9261C10.2394 12.9456 10.3456 12.982 10.4441 13.0344L10.3614 13.4552C10.1919 13.536 9.64543 13.8195 9.05128 14.3484L10.3993 6.11765ZM8.79933 15.8867C9.11535 15.3851 9.57902 14.911 10.1501 14.5395C10.3601 14.401 10.5812 14.28 10.8111 14.1777C11.3289 13.9449 11.8851 13.8088 12.4521 13.776C13.0191 13.7433 12.1564 13.2843 11.8941 13.0954C11.8941 13.0954 13.2855 12.9276 14.5956 13.9512C14.5956 13.9512 13.8085 14.6262 13.5083 16.1252C13.5083 16.1252 15.7261 13.5232 18.2013 12.27C20.6767 11.0166 23.8708 10.7579 26.7155 11.2459C26.7155 11.2459 25.7737 10.2253 23.1286 10.2426C23.1286 10.2426 23.4821 8.29129 24.7316 7.24323C24.7316 7.24323 24.6866 7.63207 24.7503 7.99343C24.7503 7.99343 26.9939 6.39174 29.4446 7.62057C29.4446 7.62057 28.9564 7.84323 28.7663 8.05986C28.7663 8.05986 30.4591 8.71635 31.2085 10.1733C31.8882 11.4989 31.1142 13.6876 30.9665 14.0762C30.9665 14.0762 30.2782 13.1495 29.2345 12.6366C30.3505 14.0649 30.9071 15.5102 31.7636 16.619C32.6202 17.7276 34.1187 18.4619 33.9868 20.5942C33.8593 22.6383 32.804 24.8774 32.0142 25.4715C31.0825 25.603 29.1431 26.0988 28.2374 28.1768C27.3318 30.2548 28.6085 32.0343 28.6085 32.0343C28.6085 32.0343 26.1851 32.9189 23.0837 33.8125C19.7661 33.7923 16.3038 33.3351 15.4111 33.2906C16.6198 33.9541 18.788 34.4961 19.6995 34.7059C18.822 34.9158 17.9385 35.1003 17.0503 35.2593C16.1487 35.3028 12.6691 34.5915 10.121 33.0261C9.25578 32.4943 8.35011 31.8898 7.48117 31.1901L7.97921 28.6492C9.33976 29.9647 11.1239 30.5197 11.1239 30.5197C11.1239 30.5197 9.00089 28.8619 8.15871 27.736L8.38058 26.601C9.25285 26.3421 10.0226 25.5962 10.1079 24.0984C10.1079 24.0984 10.9458 24.613 11.7194 24.7069C11.9298 25.2276 11.9443 25.7449 11.9718 26.3271C11.1718 26.3242 10.321 26.1304 10.2691 26.1191C10.3341 26.1769 11.405 27.1019 12.0603 27.3216C12.163 27.9923 12.3923 28.7628 12.9587 29.701C14.3964 32.0735 17.3314 32.9969 19.988 32.2338C19.988 32.2338 15.3546 32.2755 13.7196 28.8699C12.4212 26.1608 13.3849 26.2576 12.4517 24.0982C11.6515 22.2434 11.6429 19.906 11.7761 18.9939C11.7761 18.9939 10.9718 19.5214 10.8913 21.0841C10.8913 21.0841 10.2097 20.7658 9.68117 19.9539C9.50216 19.6775 9.36218 19.3778 9.26515 19.0632C9.12609 18.6267 9.04933 18.1077 9.08273 17.4976C9.08273 17.4976 8.79562 17.5888 8.47687 17.8533C8.455 17.872 8.43195 17.8923 8.41007 17.9125C8.19933 17.3191 8.36027 16.5777 8.79914 15.8865L8.79933 15.8867ZM9.3505 21.6485L9.45343 21.121C9.81613 21.5791 10.3056 22.0112 10.9607 22.2919C10.9607 22.2919 11.0693 23.0162 11.2839 23.4195C11.2839 23.4195 10.4837 23.1678 9.90402 22.7474C9.90363 22.7468 9.73117 22.2501 9.34992 21.6487L9.3505 21.6485ZM8.23878 19.3083C8.23878 19.3083 8.34171 19.1262 8.47082 19.0044C8.47082 19.0044 8.58546 19.6699 8.99835 20.4284L8.8839 21.0125C8.648 20.7312 8.37893 20.4794 8.08253 20.2625L8.23878 19.3083ZM3.41847 25.8471C2.16906 22.4332 4.57785 19.9447 6.59484 20.4871C6.85499 20.558 7.1046 20.663 7.33703 20.7993C7.54733 20.9219 7.74406 21.0663 7.92394 21.2301C8.21566 21.4922 8.46543 21.7974 8.66457 22.1349C8.84345 22.4342 8.9786 22.7574 9.06593 23.0947C9.27043 23.8905 9.1675 24.7182 8.62394 25.3586C8.43516 25.5814 8.19834 25.7588 7.93117 25.8775C7.6675 25.9975 7.3921 26.0554 7.1296 26.077C6.91144 26.0936 6.6921 26.0891 6.47472 26.0639C6.09191 26.0207 5.82687 25.9311 5.82687 25.9311C5.94718 26.1319 6.15285 26.3073 6.41378 26.4399L5.87609 29.7171C4.84855 28.6305 3.97023 27.3571 3.41808 25.8463L3.41847 25.8471ZM6.97511 30.7679L6.73878 31.9747V31.9778C6.63832 31.978 6.53886 31.9579 6.44643 31.9186C6.35401 31.8793 6.27054 31.8217 6.20109 31.7493L6.23449 31.5456L6.44171 30.2821L7.03644 26.6523C7.27726 26.7029 7.52394 26.7214 7.76984 26.7074L6.97511 30.7679ZM6.84894 40.1219C4.40832 39.8082 3.50246 37.9291 4.65031 36.0382C5.79816 34.1474 8.41261 33.0691 8.41261 33.0691C8.41261 33.0691 8.62863 33.211 8.95773 33.4163C5.98664 35.2654 6.59835 37.5403 7.83898 38.2155C7.22003 36.8597 7.80851 34.979 10.1886 34.1491C10.6118 34.3891 11.0423 34.6161 11.4001 34.7678C10.5958 36.9853 14.0544 36.7788 18.7991 35.858C23.5468 34.9369 29.271 32.8034 29.271 32.8034C31.1552 34.431 34.7407 33.8528 36.9872 31.4676C40.4482 27.6904 39.1195 24.2819 39.1195 24.2819C41.1484 24.029 45.3036 24.691 44.289 27.5823C43.2743 30.4734 35.7751 35.0628 25.9556 37.6654C16.1362 40.268 9.28761 40.4347 6.84855 40.1211L6.84894 40.1219ZM42.6165 49.6812C42.0782 50.8716 38.4085 54.0814 35.7023 55.3457C35.7603 55.2793 37.6355 53.1499 37.8634 50.4814C37.8634 50.4814 34.778 55.8051 30.1937 57.0976C27.5487 57.7486 21.4788 58.643 17.3673 56.4919C16.6181 52.8175 14.831 41.9398 14.8497 41.0127C15.9501 41.0388 22.1775 39.8698 28.1357 38.1421C33.5167 38.3371 35.9489 43.4355 36.0261 43.5972C35.2855 39.8004 32.9404 37.8789 31.4782 37.0977C34.0245 36.2361 36.3083 35.2851 37.8392 34.3034L42.6165 49.6812Z" fill="black"/>
<path d="M21.8202 26.9973C22.0624 27.4697 23.1854 29.1639 24.8075 28.3212C26.2841 27.5546 25.8683 25.5861 25.6089 25.2234C26.5436 24.2649 25.6972 23.1606 25.6972 23.1606C25.6015 24.9678 24.1321 25.2814 23.471 24.8836C23.471 24.8836 22.5696 26.8859 20.5231 25.9015C20.5226 25.9015 20.7229 26.8859 21.8202 26.9973ZM23.6335 25.9736C23.6335 25.9736 24.3587 26.1674 24.9526 25.7827C25.6306 27.8083 23.3218 28.5528 22.5755 26.8338C23.2454 26.5186 23.6335 25.9736 23.6335 25.9736ZM22.564 24.0785C22.9991 23.976 23.5067 23.5886 23.861 22.7747C24.2153 21.9608 23.8972 21.3653 22.9595 21.4968C22.0216 21.6283 20.6099 22.3757 20.6376 22.9555C20.6655 23.535 21.6985 24.2801 22.564 24.0785ZM21.3435 22.8947C21.6567 22.7038 22.0017 22.5 22.6843 22.299C23.3669 22.0979 23.5116 22.5304 23.0495 23.0451C22.5872 23.5596 22.0581 23.7908 21.3595 23.2387C21.1073 23.0392 21.2696 22.9397 21.3435 22.8947ZM24.8278 20.2449C26.4218 20.7871 27.1247 21.9218 29.0552 20.8868C30.3235 20.206 30.7757 18.4294 29.2278 16.757C27.6802 15.0844 24.9491 14.6192 23.5841 15.2044C22.219 15.7896 21.8362 17.0835 21.8362 17.0835C21.2829 19.2692 23.2335 19.7026 24.8278 20.2449ZM24.8337 15.5833C26.4913 15.4387 28.0349 16.6196 28.319 16.8598C29.8757 18.1796 29.861 19.6952 28.7017 20.3622C27.5421 21.0294 25.7829 19.9619 24.5931 19.492C23.4884 19.0557 22.7147 19.028 22.4552 18.029C22.1956 17.0301 23.177 15.7278 24.8337 15.5833ZM16.4507 26.2843C17.6724 26.3597 18.5958 25.6044 18.9522 24.6423C19.3087 23.6799 19.1554 22.9829 19.6159 21.7093C20.0765 20.4357 20.4581 18.4584 18.303 17.941C16.0782 17.4074 14.1999 19.7868 13.9825 22.3048C13.7897 24.7379 14.8806 26.1877 16.4507 26.2843ZM14.6622 21.8431C14.9087 19.4437 17.3622 17.7682 18.7466 18.8437C20.0421 19.8497 19.0188 21.2564 18.7466 22.5933C18.4739 23.9305 18.2491 25.6206 16.4999 25.674C14.7507 25.7273 14.5292 23.139 14.663 21.8435L14.6622 21.8431Z" fill="black"/>
<path d="M16.6377 23.3168C16.6953 23.3456 16.7547 23.3697 16.816 23.3891C16.5436 22.9872 16.4969 22.432 16.7422 21.9423C17.0639 21.3006 17.7754 20.9897 18.3987 21.1903C18.2769 21.0101 18.1107 20.8642 17.916 20.7666C17.2551 20.4386 16.4336 20.7421 16.0813 21.4465C15.7291 22.1511 15.9768 22.9874 16.6379 23.3166M25.828 17.5027C26.3756 17.5477 26.828 17.8742 27.0319 18.3138C27.0467 18.2515 27.0563 18.1884 27.0608 18.1245C27.1203 17.3901 26.5303 16.7439 25.7448 16.6818C24.9592 16.6196 24.2721 17.1631 24.2115 17.8969C24.1949 18.1133 24.2342 18.3303 24.3258 18.5271C24.4758 17.8917 25.1104 17.4448 25.828 17.5027Z" fill="#040002"/>
<path d="M5.4853 43.1757C5.4853 43.1757 5.02124 44.8438 3.66772 45.9396C5.02163 47.0353 5.4853 48.7035 5.4853 48.7035C5.4853 48.7035 5.95054 47.0353 7.30405 45.9396C5.95054 44.8438 5.4853 43.1757 5.4853 43.1757Z" fill="black"/>
<path d="M1.42148 30.8642C1.42148 30.8642 1.05859 32.169 0 33.0263C1.05879 33.8835 1.42148 35.1881 1.42148 35.1881C1.42148 35.1881 1.78535 33.8835 2.84414 33.0263C1.78535 32.1692 1.42148 30.8642 1.42148 30.8642Z" fill="#040002"/>
<path d="M1.42148 30.8642C1.42148 30.8642 1.05859 32.169 0 33.0263C1.05879 33.8835 1.42148 35.1881 1.42148 35.1881C1.42148 35.1881 1.78535 33.8835 2.84414 33.0263C1.78535 32.1692 1.42148 30.8642 1.42148 30.8642Z" fill="black"/>
<path d="M19.6422 5.09766C19.6422 5.09766 20.0713 3.55987 21.3205 2.54922C20.0719 1.53857 19.6428 0 19.6428 0C19.6428 0 19.2145 1.53896 17.9658 2.54922C19.2145 3.55987 19.6422 5.09766 19.6422 5.09766Z" fill="#040002"/>
<path d="M19.6422 5.09766C19.6422 5.09766 20.0713 3.55987 21.3205 2.54922C20.0719 1.53857 19.6428 0 19.6428 0C19.6428 0 19.2145 1.53896 17.9658 2.54922C19.2145 3.55987 19.6422 5.09766 19.6422 5.09766Z" fill="black"/>
<path d="M37.5292 15.5007C37.5292 15.5007 37.9179 14.1078 39.0479 13.193C37.9179 12.2782 37.5294 10.8855 37.5294 10.8855C37.5294 10.8855 37.1423 12.2782 36.0122 13.193C37.1423 14.108 37.5294 15.5005 37.5294 15.5005" fill="#040002"/>
<path d="M37.5292 15.5007C37.5292 15.5007 37.9179 14.1078 39.0479 13.193C37.9179 12.2782 37.5294 10.8855 37.5294 10.8855C37.5294 10.8855 37.1423 12.2782 36.0122 13.193C37.1423 14.108 37.5294 15.5005 37.5294 15.5005" fill="black"/>
<path d="M48.9279 26.2017C48.9279 26.2017 48.6545 27.1855 47.8564 27.831C48.6543 28.477 48.9279 29.4604 48.9279 29.4604C48.9279 29.4604 49.202 28.4766 50 27.831C49.202 27.1851 48.9279 26.2017 48.9279 26.2017Z" fill="#040002"/>
<path d="M48.9279 26.2017C48.9279 26.2017 48.6544 27.1855 47.8564 27.831C48.6542 28.477 48.9279 29.4604 48.9279 29.4604C48.9279 29.4604 49.2019 28.4766 50 27.831C49.2019 27.1851 48.9279 26.2017 48.9279 26.2017ZM46.2267 31.3588C46.2267 31.3588 45.799 32.8973 44.5505 33.908C45.799 34.9186 46.2267 36.4574 46.2267 36.4574C46.2267 36.4574 46.6556 34.9186 47.9044 33.908C46.6556 32.8973 46.2267 31.3588 46.2267 31.3588ZM15.2103 8.25741C15.2103 8.25741 15.5742 7.00286 16.633 6.17845C15.5744 5.35384 15.2103 4.09949 15.2103 4.09949C15.2103 4.09949 14.8476 5.35403 13.7888 6.17845C14.8474 7.00286 15.2103 8.25741 15.2103 8.25741Z" fill="black"/>
</g>
<defs>
<clipPath id="clip0_13_1087">
<rect width="50" height="60" fill="white"/>
</clipPath>
</defs>
</svg>
