<svg width="93" height="37" viewBox="0 0 93 37" fill="none" xmlns="http://www.w3.org/2000/svg">
<path d="M21.6391 28.0239L11.1399 9.7644L0.640625 28.0239H21.6391ZM32.2287 27.1927L41.003 10.5944H37.2078L31.1551 22.6487L25.1024 10.5944H21.3071L30.0814 27.1927H32.2287ZM92.0255 10.5944V27.1927H88.8834V10.5944H92.0255ZM74.5356 20.9975C74.5356 19.704 74.8056 18.5662 75.3457 17.5844C75.8858 16.6025 76.6386 15.8466 77.6043 15.3167C78.5696 14.7868 79.6989 14.5219 80.9918 14.5219C82.1372 14.5219 83.1682 14.7712 84.0847 15.2699C85.0008 15.7687 85.7291 16.509 86.2691 17.4909C86.8092 18.4727 87.0873 19.6728 87.1038 21.0911V21.8158H77.8497C77.915 22.8444 78.2177 23.6549 78.7578 24.2471C79.3144 24.8237 80.0588 25.1121 80.9918 25.1121C81.5806 25.1121 82.1207 24.9562 82.6116 24.6445C83.1025 24.3328 83.4709 23.912 83.7163 23.3821L86.9321 23.6159C86.5392 24.7848 85.8028 25.7199 84.7227 26.4212C83.6426 27.1226 82.3988 27.4732 80.9918 27.4732C79.6989 27.4732 78.5696 27.2083 77.6043 26.6784C76.6386 26.1485 75.8858 25.3926 75.3457 24.4107C74.8056 23.4289 74.5356 22.2911 74.5356 20.9975ZM83.8634 19.8286C83.749 18.8156 83.4298 18.0753 82.9062 17.6078C82.3827 17.1246 81.7443 16.883 80.9918 16.883C80.1244 16.883 79.4207 17.1402 78.8807 17.6545C78.3406 18.1688 78.0049 18.8935 77.8743 19.8286H83.8634ZM69.2351 17.6078C69.7586 18.0285 70.0859 18.613 70.2169 19.3611L73.4573 19.1975C73.3424 18.2467 73.0071 17.4207 72.4509 16.7194C71.8943 16.0181 71.1741 15.4803 70.2906 15.1063C69.4233 14.7167 68.4661 14.5219 67.4186 14.5219C66.1257 14.5219 64.9968 14.7868 64.0311 15.3167C63.0655 15.8466 62.313 16.6025 61.7729 17.5844C61.2328 18.5662 60.9628 19.704 60.9628 20.9975C60.9628 22.2911 61.2328 23.4289 61.7729 24.4107C62.313 25.3926 63.0655 26.1485 64.0311 26.6784C64.9968 27.2083 66.1257 27.4732 67.4186 27.4732C68.4987 27.4732 69.4805 27.2784 70.3644 26.8888C71.2478 26.4836 71.968 25.9147 72.5243 25.1822C73.0808 24.4497 73.4162 23.5925 73.5306 22.6106L70.266 22.4704C70.1516 23.2964 69.8324 23.9354 69.3088 24.3873C68.7849 24.8237 68.155 25.042 67.4186 25.042C66.4042 25.042 65.6186 24.6913 65.0621 23.9899C64.5059 23.2886 64.2274 22.2911 64.2274 20.9975C64.2274 19.704 64.5059 18.7065 65.0621 18.0052C65.6186 17.3038 66.4042 16.9531 67.4186 16.9531C68.1223 16.9531 68.7277 17.1714 69.2351 17.6078ZM53.2959 14.8018H56.2195L56.3042 17.1865C56.5117 16.5115 56.8003 15.9873 57.1701 15.614C57.7059 15.0725 58.4532 14.8018 59.4115 14.8018H60.6053V17.3543H59.3872C58.7049 17.3543 58.1445 17.4471 57.7059 17.6327C57.2835 17.8183 56.9587 18.1122 56.7315 18.5144C56.5201 18.9166 56.4148 19.4271 56.4148 20.0459V27.1927H53.2959V14.8018ZM39.8095 17.5844C39.2694 18.5662 38.9994 19.704 38.9994 20.9975C38.9994 22.2911 39.2694 23.4289 39.8095 24.4107C40.3495 25.3926 41.102 26.1485 42.0677 26.6784C43.0333 27.2083 44.1623 27.4732 45.4552 27.4732C46.8626 27.4732 48.1063 27.1226 49.1865 26.4212C50.2662 25.7199 51.0029 24.7848 51.3955 23.6159L48.1797 23.3821C47.9343 23.912 47.5663 24.3328 47.0754 24.6445C46.5845 24.9562 46.0444 25.1121 45.4552 25.1121C44.5225 25.1121 43.7778 24.8237 43.2216 24.2471C42.6815 23.6549 42.3788 22.8444 42.3131 21.8158H51.5672V21.0911C51.5511 19.6728 51.273 18.4727 50.7329 17.4909C50.1928 16.509 49.4646 15.7687 48.5481 15.2699C47.6316 14.7712 46.6006 14.5219 45.4552 14.5219C44.1623 14.5219 43.0333 14.7868 42.0677 15.3167C41.102 15.8466 40.3495 16.6025 39.8095 17.5844ZM47.37 17.6078C47.8935 18.0753 48.2127 18.8156 48.3272 19.8286H42.3377C42.4687 18.8935 42.804 18.1688 43.3441 17.6545C43.8842 17.1402 44.5879 16.883 45.4552 16.883C46.208 16.883 46.8461 17.1246 47.37 17.6078Z" fill="#08090A" fill-opacity="0.8"/>
</svg>
